<?xml version="1.0" standalone="no"?>
<!DOCTYPE svg PUBLIC "-//W3C//DTD SVG 20010904//EN"
 "http://www.w3.org/TR/2001/REC-SVG-20010904/DTD/svg10.dtd">
<svg version="1.0" xmlns="http://www.w3.org/2000/svg"
 width="256.000000pt" height="256.000000pt" viewBox="0 0 256.000000 256.000000"
 preserveAspectRatio="xMidYMid meet">
<metadata>
Created by potrace 1.14, written by Peter Selinger 2001-2017
</metadata>
<g transform="translate(0.000000,256.000000) scale(0.100000,-0.100000)"
fill="#000000" stroke="none">
<path d="M5 2548 c-3 -7 -4 -582 -3 -1278 l3 -1265 1275 0 1275 0 0 1275 0
1275 -1273 3 c-1013 2 -1274 0 -1277 -10z m1195 -1268 l0 -1160 -540 0 -540 0
0 1160 0 1160 540 0 540 0 0 -1160z m1240 0 l0 -1160 -540 0 -540 0 0 1160 0
1160 540 0 540 0 0 -1160z m-1136 744 c13 -13 16 -44 16 -184 0 -140 -3 -171
-16 -184 -19 -19 -36 -20 -52 -4 -17 17 -17 359 0 376 16 16 33 15 52 -4z m0
-1120 c13 -13 16 -44 16 -184 0 -140 -3 -171 -16 -184 -19 -19 -36 -20 -52 -4
-17 17 -17 359 0 376 16 16 33 15 52 -4z"/>
<path d="M264 2381 c-22 -10 -50 -31 -62 -46 -27 -34 -47 -98 -38 -120 10 -28
28 -12 43 37 23 81 101 124 177 98 40 -13 83 -59 92 -98 10 -46 13 -52 27 -52
9 0 17 15 21 39 13 83 96 136 175 112 44 -13 88 -58 97 -99 10 -46 13 -52 27
-52 9 0 17 15 21 39 13 83 96 136 175 112 44 -13 88 -58 97 -99 10 -47 14 -54
27 -50 32 11 7 108 -40 150 -28 25 -88 48 -125 48 -45 -1 -110 -32 -136 -65
l-22 -28 -22 28 c-27 34 -92 65 -138 65 -46 0 -111 -31 -138 -65 l-22 -28 -22
28 c-27 34 -92 65 -138 65 -19 0 -53 -9 -76 -19z"/>
<path d="M291 2306 c-87 -48 -50 -186 49 -186 51 0 100 49 100 99 0 75 -83
124 -149 87z m89 -46 c11 -11 20 -28 20 -38 0 -29 -29 -62 -56 -62 -29 0 -64
32 -64 60 0 11 9 29 20 40 11 11 29 20 40 20 11 0 29 -9 40 -20z"/>
<path d="M611 2306 c-63 -35 -67 -120 -7 -168 58 -47 156 4 156 81 0 75 -83
124 -149 87z"/>
<path d="M931 2306 c-91 -50 -49 -187 57 -186 30 0 64 24 81 57 43 85 -53 176
-138 129z m89 -46 c11 -11 20 -29 20 -40 0 -28 -35 -60 -64 -60 -27 0 -56 33
-56 62 0 24 35 58 60 58 11 0 29 -9 40 -20z"/>
<path d="M244 2107 c-4 -12 70 -359 81 -378 6 -9 35 -13 35 -4 0 2 18 89 41
191 29 133 37 190 30 197 -8 8 -14 8 -23 -1 -14 -14 -124 -16 -133 -2 -9 14
-25 12 -31 -3z"/>
<path d="M884 2107 c-6 -16 73 -368 86 -381 19 -19 31 12 71 193 30 133 38
186 30 194 -8 8 -14 8 -23 -1 -14 -14 -124 -16 -133 -2 -9 14 -25 12 -31 -3z"/>
<path d="M564 2027 c-6 -16 73 -368 86 -381 20 -20 32 13 72 194 29 132 37
185 29 193 -19 19 -29 -4 -57 -130 -15 -68 -30 -123 -34 -123 -4 0 -17 48 -30
108 -12 59 -26 117 -31 130 -9 24 -27 29 -35 9z"/>
<path d="M590 1511 c-46 -15 -85 -39 -116 -73 -54 -57 -69 -95 -69 -178 0 -83
15 -121 69 -178 72 -77 190 -103 284 -62 104 45 169 150 159 258 -8 95 -59
172 -142 214 -43 22 -144 33 -185 19z m82 -137 c4 -34 -4 -50 -20 -40 -10 6
-3 76 8 76 4 0 10 -16 12 -36z m-105 -46 c18 -7 33 -18 33 -25 0 -20 -22 -15
-55 12 -33 28 -28 31 22 13z m208 -13 c-33 -28 -55 -32 -55 -11 0 7 15 18 33
24 50 16 54 13 22 -13z m-99 -46 c10 -17 -13 -36 -27 -22 -12 12 -4 33 11 33
5 0 12 -5 16 -11z m-76 -52 c0 -12 -52 -37 -76 -37 -14 0 49 49 64 50 6 0 12
-6 12 -13z m172 -8 c16 -12 27 -23 24 -26 -9 -9 -76 21 -76 34 0 19 18 16 52
-8z m-101 -32 c-1 -4 -1 -20 -1 -37 0 -16 -4 -30 -10 -30 -5 0 -10 18 -10 41
0 25 4 39 11 37 6 -2 10 -7 10 -11z"/>
<path d="M641 898 c-4 -13 -25 -99 -45 -192 -27 -121 -35 -171 -27 -179 8 -8
14 -8 23 1 16 16 120 16 136 0 9 -9 15 -9 23 -1 8 8 1 57 -26 179 -39 182 -49
214 -65 214 -6 0 -14 -10 -19 -22z"/>
<path d="M321 818 c-4 -13 -25 -99 -45 -192 -27 -121 -35 -171 -27 -179 19
-19 30 4 56 123 14 63 28 122 32 130 3 8 19 -43 35 -115 30 -134 40 -157 59
-138 7 7 -1 64 -30 197 -23 102 -41 189 -41 191 0 16 -32 1 -39 -17z"/>
<path d="M961 818 c-4 -13 -25 -99 -45 -192 -27 -121 -35 -171 -27 -179 19
-19 30 5 58 131 15 67 30 122 33 122 4 0 19 -55 34 -122 28 -127 38 -150 57
-131 8 8 0 59 -26 179 -41 187 -50 214 -65 214 -6 0 -14 -10 -19 -22z"/>
<path d="M598 417 c-79 -74 -16 -199 87 -173 107 27 94 181 -15 193 -38 4 -49
1 -72 -20z m102 -37 c11 -11 20 -29 20 -40 0 -26 -34 -60 -60 -60 -25 0 -60
34 -60 58 0 54 62 80 100 42z"/>
<path d="M931 426 c-87 -48 -50 -186 49 -186 51 0 100 49 100 100 0 29 -27 77
-49 90 -27 14 -71 12 -100 -4z"/>
<path d="M163 344 c-8 -22 13 -86 39 -119 27 -34 92 -65 138 -65 46 0 111 31
138 65 l22 28 22 -28 c27 -34 92 -65 138 -65 46 0 111 31 138 65 l22 28 22
-28 c27 -34 92 -65 138 -65 46 0 111 31 138 65 40 51 54 135 22 135 -11 0 -14
-7 -24 -52 -9 -39 -52 -85 -92 -98 -76 -26 -154 17 -177 98 -14 46 -33 65 -41
40 -2 -7 -7 -25 -10 -40 -9 -41 -53 -86 -97 -99 -80 -24 -162 29 -175 112 -9
54 -33 48 -51 -13 -42 -146 -245 -137 -269 13 -7 40 -29 53 -41 23z"/>
<path d="M1504 2381 c-22 -10 -50 -31 -62 -46 -27 -34 -47 -98 -38 -120 10
-28 28 -12 43 37 23 80 101 124 176 99 45 -15 76 -49 91 -102 7 -24 19 -44 26
-44 7 0 19 21 27 47 41 143 225 141 267 -3 13 -44 33 -62 40 -37 2 7 7 25 10
40 9 39 52 85 92 98 76 26 154 -17 177 -98 15 -49 33 -65 43 -37 9 22 -11 86
-38 120 -27 34 -92 65 -138 65 -46 0 -111 -31 -138 -65 l-22 -28 -22 28 c-27
34 -92 65 -138 65 -46 0 -111 -31 -138 -65 l-22 -28 -22 28 c-27 34 -92 65
-138 65 -19 0 -53 -9 -76 -19z"/>
<path d="M1531 2306 c-87 -48 -50 -186 49 -186 51 0 100 49 100 99 0 75 -83
124 -149 87z"/>
<path d="M2171 2306 c-87 -48 -50 -186 49 -186 51 0 100 49 100 99 0 75 -83
124 -149 87z"/>
<path d="M1484 2107 c-6 -16 73 -368 86 -381 19 -19 30 10 71 193 30 133 38
186 30 194 -19 19 -30 -5 -58 -131 -15 -67 -30 -122 -33 -122 -3 0 -17 48 -30
108 -13 59 -27 117 -31 130 -9 24 -27 29 -35 9z"/>
<path d="M2125 2110 c-3 -5 12 -93 34 -194 23 -101 41 -187 41 -190 0 -3 7 -6
15 -6 21 0 26 16 69 214 27 121 35 171 27 179 -19 19 -30 -4 -56 -123 -14 -63
-28 -122 -32 -130 -3 -8 -18 40 -33 107 -15 67 -30 129 -33 137 -7 18 -23 21
-32 6z"/>
<path d="M1805 2027 c-7 -17 71 -367 84 -380 20 -20 30 7 72 192 30 133 38
186 30 194 -8 8 -14 8 -23 -1 -14 -14 -124 -16 -133 -2 -9 14 -25 12 -30 -3z"/>
<path d="M1830 1511 c-108 -35 -177 -121 -187 -233 -7 -73 15 -136 69 -194
123 -134 336 -101 424 66 13 25 19 56 19 110 0 54 -6 85 -19 110 -26 49 -74
98 -121 122 -43 22 -144 33 -185 19z m80 -142 c0 -28 -4 -39 -12 -36 -7 2 -13
9 -12 15 1 7 2 23 3 37 2 42 21 28 21 -16z m-100 -44 c31 -16 40 -35 18 -35
-17 0 -76 49 -60 50 7 0 26 -7 42 -15z m205 -10 c-33 -27 -55 -32 -55 -12 0 7
12 18 28 24 47 19 58 14 27 -12z m-99 -46 c10 -17 -13 -36 -27 -22 -12 12 -4
33 11 33 5 0 12 -5 16 -11z m-76 -52 c0 -12 -53 -38 -76 -37 -14 1 49 50 64
50 6 0 12 -6 12 -13z m172 -8 c16 -12 27 -23 24 -26 -9 -9 -76 21 -76 34 0 19
18 16 52 -8z m-101 -32 c-1 -4 -1 -20 -1 -37 0 -16 -4 -30 -9 -30 -9 0 -20 67
-12 76 7 6 23 0 22 -9z"/>
<path d="M1881 897 c-5 -13 -26 -99 -46 -191 -27 -122 -34 -171 -26 -179 19
-19 29 4 59 138 16 72 32 123 35 115 4 -8 18 -67 32 -130 26 -119 37 -142 56
-123 8 8 0 58 -27 179 -20 93 -41 179 -45 192 -11 29 -27 28 -38 -1z"/>
<path d="M1561 818 c-4 -13 -25 -99 -45 -192 -27 -121 -35 -171 -27 -179 8 -8
14 -8 23 1 16 16 120 16 136 0 9 -9 15 -9 23 -1 8 8 0 58 -27 179 -41 188 -49
214 -64 214 -6 0 -14 -10 -19 -22z"/>
<path d="M2200 835 c0 -2 -18 -89 -41 -191 -29 -133 -37 -190 -30 -197 8 -8
14 -8 23 1 16 16 120 16 136 0 9 -9 15 -9 23 -1 8 8 0 58 -27 179 -43 198 -48
214 -69 214 -8 0 -15 -2 -15 -5z"/>
<path d="M1531 426 c-87 -48 -50 -186 49 -186 51 0 100 49 100 99 0 75 -83
124 -149 87z m89 -46 c11 -11 20 -29 20 -40 0 -26 -34 -60 -60 -60 -26 0 -60
34 -60 62 0 52 62 76 100 38z"/>
<path d="M1829 411 c-62 -62 -16 -171 72 -171 70 0 120 81 88 143 -32 63 -111
77 -160 28z"/>
<path d="M1404 345 c-9 -22 11 -86 38 -120 27 -34 92 -65 138 -65 46 0 111 31
138 65 l22 28 22 -28 c27 -34 92 -65 138 -65 46 0 111 31 138 65 l22 28 22
-28 c27 -34 92 -65 138 -65 46 0 111 31 138 65 27 34 47 98 38 120 -10 28 -28
12 -43 -37 -23 -80 -101 -124 -176 -99 -45 15 -76 49 -91 102 -17 58 -41 63
-50 10 -24 -149 -227 -159 -269 -13 -8 26 -20 47 -27 47 -7 0 -19 -20 -26 -44
-15 -53 -46 -87 -91 -102 -75 -25 -153 19 -176 99 -15 49 -33 65 -43 37z"/>
</g>
</svg>
